<svg width="51" height="50" viewBox="0 0 51 50" fill="none" xmlns="http://www.w3.org/2000/svg">
<path d="M45.259 33.5719L43.0988 32.2758C38.0408 29.2638 33.801 25.0546 30.7525 20.0186C30.2783 19.239 29.6553 18.5605 28.9189 18.0217C28.1825 17.4829 27.3472 17.0945 26.4607 16.8785C25.5742 16.6626 24.6539 16.6233 23.7522 16.763C22.8506 16.9028 21.9852 17.2187 21.2057 17.6929C20.4261 18.167 19.7476 18.7901 19.2088 19.5264C18.6701 20.2628 18.2816 21.0981 18.0656 21.9846C17.6295 23.775 17.9224 25.6653 18.88 27.2397C23.116 34.1868 28.9733 40.0033 35.95 44.1906L38.1102 45.4867C38.2667 45.5806 38.4401 45.6427 38.6206 45.6695C38.801 45.6964 38.985 45.6874 39.1621 45.6432C39.3391 45.5989 39.5056 45.5202 39.6522 45.4116C39.7988 45.303 39.9226 45.1665 40.0165 45.0101C40.1104 44.8536 40.1725 44.6802 40.1994 44.4997C40.2262 44.3192 40.2173 44.1352 40.173 43.9582C40.1287 43.7812 40.05 43.6146 39.9414 43.468C39.8328 43.3214 39.6963 43.1976 39.5399 43.1038L37.3797 41.8076C30.7735 37.8736 25.236 32.3753 21.2551 25.7971C20.9693 25.3294 20.7785 24.81 20.6937 24.2685C20.6088 23.727 20.6316 23.1741 20.7607 22.6414C20.8897 22.1087 21.1226 21.6067 21.4459 21.164C21.7691 20.7214 22.1765 20.3469 22.6447 20.0619C23.1129 19.7769 23.6327 19.587 24.1743 19.5031C24.716 19.4192 25.2688 19.443 25.8013 19.5729C26.3338 19.7029 26.8354 19.9366 27.2774 20.2607C27.7195 20.5848 28.0933 20.9928 28.3774 21.4615C31.6763 26.8701 36.2371 31.3985 41.6691 34.6587L43.8293 35.9548C43.9858 36.0487 44.1592 36.1108 44.3397 36.1377C44.5201 36.1645 44.7041 36.1556 44.8811 36.1113C45.0582 36.0671 45.2247 35.9884 45.3713 35.8797C45.5179 35.7711 45.6417 35.6347 45.7356 35.4782C45.8295 35.3217 45.8916 35.1483 45.9185 34.9678C45.9453 34.7874 45.9363 34.6034 45.8921 34.4263C45.8478 34.2493 45.7691 34.0828 45.6605 33.9362C45.5519 33.7896 45.4154 33.6658 45.259 33.5719H45.259Z" fill="white"/>
<path d="M42.3994 38.3378L40.2393 37.0417C34.1716 33.3956 29.1232 28.2758 25.5627 22.1575C25.471 21.9997 25.3492 21.8616 25.2041 21.7509C25.059 21.6402 24.8936 21.5592 24.7172 21.5125C24.5408 21.4657 24.357 21.4542 24.1761 21.4785C23.9953 21.5028 23.821 21.5625 23.6632 21.6542C23.3446 21.8393 23.1126 22.1434 23.0182 22.4996C22.9714 22.676 22.9599 22.8599 22.9842 23.0407C23.0085 23.2216 23.0682 23.3958 23.1599 23.5536C26.9565 30.0776 32.3395 35.5368 38.8095 39.4247L40.9697 40.7208C41.2857 40.9104 41.6641 40.9666 42.0216 40.8773C42.3791 40.7879 42.6865 40.5601 42.876 40.2441C43.0656 39.9282 43.1219 39.5498 43.0325 39.1923C42.9432 38.8348 42.7154 38.5274 42.3994 38.3378H42.3994Z" fill="white"/>
<path d="M2.67465 27.0239C2.86772 27.0239 3.05867 26.9837 3.23532 26.9058C3.41198 26.8279 3.57046 26.714 3.70066 26.5715C3.83086 26.4289 3.92992 26.2608 3.99152 26.0778C4.05313 25.8948 4.07592 25.701 4.05846 25.5087C3.79611 22.625 4.13757 19.7181 5.06107 16.9736C5.98458 14.2292 7.46986 11.7072 9.42221 9.56867C11.3746 7.43012 13.7511 5.72186 16.4004 4.55284C19.0496 3.38382 21.9134 2.77969 24.8091 2.77897C28.3878 2.79071 31.904 3.71814 35.023 5.47299C38.142 7.22784 40.76 9.75172 42.6278 12.8044C43.641 14.475 44.8705 16.0044 46.2844 17.3528C46.4165 17.4787 46.5722 17.5773 46.7424 17.6431C46.9127 17.7088 47.0943 17.7403 47.2767 17.7359C47.4592 17.7314 47.639 17.6911 47.8058 17.6171C47.9727 17.5431 48.1233 17.437 48.2492 17.3049C48.375 17.1727 48.4736 17.017 48.5393 16.8467C48.6049 16.6764 48.6364 16.4948 48.6319 16.3124C48.6274 16.1299 48.5869 15.9501 48.5129 15.7833C48.4389 15.6165 48.3327 15.4659 48.2005 15.3401C46.964 14.1606 45.8888 12.8228 45.0029 11.3615C42.8861 7.90195 39.9191 5.04171 36.3844 3.05299C32.8497 1.06428 28.8648 0.0132702 24.8091 0C21.654 0.000846714 18.5311 0.633718 15.6247 1.86126C12.7182 3.0888 10.0871 4.88614 7.88668 7.1472C5.68623 9.40825 3.96103 12.0872 2.81289 15.0259C1.66475 17.9646 1.11694 21.1036 1.2018 24.2575C0.852792 24.3051 0.534882 24.4835 0.312369 24.7565C0.0898565 25.0296 -0.0206529 25.377 0.00318902 25.7284C0.027031 26.0798 0.183446 26.4091 0.4408 26.6496C0.698154 26.8901 1.03724 27.0239 1.38948 27.0239H2.67465Z" fill="white"/>
<path d="M25.1277 46.7831C23.5089 45.4817 21.9595 44.0964 20.4856 42.633C20.2579 42.4068 19.9589 42.2665 19.6395 42.2357C19.32 42.205 18.9998 42.2858 18.7331 42.4644C17.0487 43.592 15.2267 44.4994 13.3118 45.1642C12.9637 45.2852 12.6779 45.5395 12.5172 45.8711C12.3566 46.2028 12.3343 46.5847 12.4553 46.9328C12.5762 47.2809 12.8305 47.5667 13.1621 47.7274C13.4938 47.888 13.8757 47.9103 14.2238 47.7894C16.0049 47.1707 17.7151 46.3641 19.3254 45.3832C20.626 46.6292 21.9885 47.8257 23.3869 48.9493C23.6742 49.1801 24.0414 49.2874 24.4077 49.2475C24.7741 49.2076 25.1095 49.0238 25.3404 48.7366C25.5712 48.4493 25.6785 48.0822 25.6386 47.7158C25.5987 47.3495 25.4149 47.014 25.1277 46.7831Z" fill="white"/>
<path d="M49.3469 23.0613L48.8178 22.7439C45.3094 20.6566 42.3681 17.7388 40.2527 14.2472C38.6339 11.6014 36.3649 9.41393 33.6616 7.89296C30.9584 6.37199 27.9108 5.56815 24.8091 5.55795C21.9367 5.55905 19.1059 6.2451 16.5517 7.55917C13.9974 8.87324 11.7934 10.7775 10.1224 13.1138C8.45136 15.4502 7.36157 18.1513 6.94341 20.9932C6.52526 23.835 6.7908 26.7356 7.718 29.4543C7.02101 29.6842 6.2919 29.8019 5.55795 29.8029H2.77898C2.41047 29.8029 2.05705 29.9493 1.79647 30.2099C1.53589 30.4704 1.3895 30.8239 1.3895 31.1924C1.3895 31.5609 1.53589 31.9143 1.79647 32.1749C2.05705 32.4355 2.41047 32.5819 2.77898 32.5819H5.55795C7.15948 32.5788 8.73565 32.1817 10.1475 31.4256C10.4541 31.2615 10.688 30.9884 10.8031 30.6602C10.9181 30.3321 10.906 29.9727 10.769 29.653C9.24211 26.0984 9.12009 22.0969 10.4275 18.4558C11.7349 14.8147 14.3744 11.8049 17.8137 10.0334C21.253 8.26191 25.2362 7.86059 28.9597 8.91038C32.6833 9.96017 35.8702 12.383 37.8777 15.6901C40.2263 19.5677 43.4923 22.8085 47.3881 25.1269L47.9172 25.4444C48.2332 25.634 48.6116 25.6903 48.9691 25.6009C49.3266 25.5115 49.634 25.2837 49.8236 24.9677C50.0132 24.6517 50.0695 24.2733 49.9801 23.9158C49.8907 23.5582 49.6629 23.2509 49.3469 23.0613Z" fill="white"/>
<path d="M34.0743 46.303C29.1443 43.2791 24.7416 39.4699 21.0403 35.0258C20.9131 34.8732 20.7546 34.7497 20.5756 34.6636C20.3966 34.5774 20.2012 34.5306 20.0026 34.5264C19.8039 34.5222 19.6067 34.5606 19.4242 34.6391C19.2417 34.7176 19.0781 34.8343 18.9445 34.9813C16.1145 38.0895 12.2951 40.1213 8.13607 40.7311C7.95542 40.7574 7.78172 40.819 7.62488 40.9124C7.46805 41.0058 7.33116 41.1292 7.22204 41.2756C7.11292 41.4219 7.03371 41.5883 6.98893 41.7653C6.94415 41.9423 6.93468 42.1263 6.96106 42.307C6.98745 42.4876 7.04916 42.6613 7.14269 42.818C7.23622 42.9748 7.35972 43.1116 7.50614 43.2206C7.65256 43.3296 7.81903 43.4087 7.99604 43.4534C8.17304 43.4981 8.35711 43.5074 8.53772 43.4809C12.8025 42.8549 16.7711 40.9308 19.904 37.97C23.5852 42.1518 27.8717 45.759 32.621 48.6717C32.9351 48.8637 33.3125 48.9232 33.6704 48.8371C34.0284 48.7511 34.3375 48.5265 34.53 48.2128C34.7225 47.899 34.7826 47.5217 34.6972 47.1636C34.6118 46.8056 34.3877 46.4961 34.0743 46.303Z" fill="white"/>
<path d="M47.9574 28.7093L45.9583 27.5099C41.6751 24.9602 38.0845 21.3966 35.5026 17.1328C34.3817 15.3008 32.8106 13.7861 30.9388 12.7329C29.067 11.6797 26.9568 11.123 24.8091 11.1159C22.5898 11.1174 20.4109 11.7093 18.4959 12.8308C16.5808 13.9524 14.9987 15.5632 13.9116 17.498C12.8246 19.4329 12.2719 21.622 12.3102 23.841C12.3485 26.0599 12.9764 28.2287 14.1295 30.1249C14.3566 30.4988 14.5906 30.8737 14.8294 31.2462C13.6536 32.5373 12.2222 33.5697 10.6262 34.278C9.03007 34.9864 7.30414 35.3551 5.55794 35.3608C5.18943 35.3608 4.83601 35.5072 4.57543 35.7678C4.31485 36.0284 4.16846 36.3818 4.16846 36.7503C4.16846 37.1188 4.31485 37.4723 4.57543 37.7329C4.83601 37.9934 5.18943 38.1398 5.55794 38.1398C7.89337 38.1325 10.1965 37.5935 12.2926 36.5637C14.3887 35.5339 16.2229 34.0403 17.6559 32.1963C17.8337 31.9659 17.9348 31.6855 17.9447 31.3947C17.9547 31.1038 17.873 30.8172 17.7114 30.5752C17.2957 29.9531 16.8898 29.3163 16.5047 28.6823C15.8401 27.5909 15.3972 26.3791 15.2011 25.1163C15.005 23.8536 15.0596 22.5646 15.3619 21.3229C15.6642 20.0813 16.2081 18.9114 16.9627 17.8801C17.7173 16.8487 18.6677 15.9762 19.7596 15.3123C20.8515 14.6485 22.0635 14.2062 23.3264 14.011C24.5893 13.8157 25.8783 13.8711 27.1197 14.1742C28.3612 14.4773 29.5307 15.022 30.5616 15.7772C31.5924 16.5324 32.4643 17.4834 33.1275 18.5757C35.9427 23.2256 39.858 27.1121 44.5286 29.8928L46.5277 31.0922C46.8437 31.2814 47.2218 31.3374 47.5791 31.2479C47.9363 31.1584 48.2434 30.9307 48.4328 30.6149C48.6223 30.2991 48.6786 29.921 48.5895 29.5637C48.5003 29.2064 48.273 28.8991 47.9574 28.7093V28.7093Z" fill="white"/>
</svg>
