<svg width="16" height="13" viewBox="0 0 16 13" fill="none" xmlns="http://www.w3.org/2000/svg">
<path d="M10.5417 11.9791L10.5417 10.4167L9.5834 10.4167L9.5834 11.4583L0.958375 11.4583L0.958376 1.04167L9.5834 1.04167L9.5834 2.08335L10.5417 2.08335L10.5417 0.520837C10.5417 0.232945 10.3274 -1.01824e-08 10.0626 -2.27665e-08L0.479232 -4.78092e-07C0.214369 -4.90676e-07 5.81648e-05 0.232944 5.81532e-05 0.520837L5.76924e-05 11.9791C5.76808e-05 12.267 0.214368 12.5 0.479231 12.5L10.0626 12.5C10.3274 12.5 10.5417 12.267 10.5417 11.9791Z" fill="#22B5DA"/>
<path d="M13.4991 5.72917L6.70835 5.72917L6.70835 6.77085L13.4991 6.77085L11.442 9.00676L12.1196 9.74325L15.3334 6.25001L12.1196 2.75677L11.442 3.49326L13.4991 5.72917Z" fill="#22B5DA"/>
</svg>
