<svg width="25" height="15" viewBox="0 0 25 15" fill="none" xmlns="http://www.w3.org/2000/svg">
<path d="M25 6H21.875V3H20.3125V6H17.1875V7.5H20.3125V10.5H21.875V7.5H25V6Z" fill="#F44336"/>
<path d="M7.8125 9H12.2328C11.5875 10.746 9.85 12 7.8125 12C5.22813 12 3.125 9.981 3.125 7.5C3.125 5.019 5.22813 3 7.8125 3C8.93281 3 10.0109 3.3855 10.8484 4.086L12.9016 1.824C11.4953 0.648 9.68906 0 7.8125 0C3.50469 0 0 3.3645 0 7.5C0 11.6355 3.50469 15 7.8125 15C12.1203 15 15.625 11.6355 15.625 7.5V6H7.8125V9Z" fill="#F44336"/>
</svg>
