<svg width="27" height="16" viewBox="0 0 27 16" fill="none" xmlns="http://www.w3.org/2000/svg">
<path d="M21.7396 7.57041C23.1623 7.57041 24.3157 6.41704 24.3157 4.9943C24.3157 3.57155 23.1623 2.41818 21.7396 2.41818C20.3168 2.41818 19.1635 3.57155 19.1635 4.9943C19.1635 6.41704 20.3168 7.57041 21.7396 7.57041Z" fill="#989898"/>
<path d="M4.61786 7.57041C6.04061 7.57041 7.19398 6.41704 7.19398 4.9943C7.19398 3.57155 6.04061 2.41818 4.61786 2.41818C3.19511 2.41818 2.04175 3.57155 2.04175 4.9943C2.04175 6.41704 3.19511 7.57041 4.61786 7.57041Z" fill="#989898"/>
<path d="M13.1923 7.27976C15.2025 7.27976 16.8321 5.65013 16.8321 3.63988C16.8321 1.62963 15.2025 0 13.1923 0C11.182 0 9.55237 1.62963 9.55237 3.63988C9.55237 5.65013 11.182 7.27976 13.1923 7.27976Z" fill="#989898"/>
<path d="M7.89596 10.2212C7.45695 9.8828 6.9073 9.68091 6.31015 9.68091H2.96576C1.52928 9.68091 0.364746 10.8454 0.364746 12.2819V13.2505C0.364746 13.4142 0.497485 13.547 0.661242 13.547H6.02989C6.17265 12.1961 6.87308 11.0093 7.89596 10.2212Z" fill="#989898"/>
<path d="M15.5379 10.8148H10.8464C9.05426 10.8148 7.60144 12.2676 7.60144 14.0597V15.304C7.60144 15.5145 7.77206 15.6851 7.98257 15.6851H18.4016C18.6121 15.6851 18.7828 15.5145 18.7828 15.304V14.0597C18.7828 12.2676 17.33 10.8148 15.5379 10.8148Z" fill="#989898"/>
<path d="M23.4118 9.64178H20.0674C19.4726 9.64178 18.9162 9.85841 18.4709 10.2078C19.4934 10.9882 20.1971 12.1655 20.35 13.5079H25.7358C25.8888 13.5079 26.0128 13.3838 26.0128 13.2309V12.2428C26.0128 10.8063 24.8483 9.64178 23.4118 9.64178Z" fill="#989898"/>
</svg>
