<svg width="15" height="18" viewBox="0 0 15 18" fill="none" xmlns="http://www.w3.org/2000/svg">
<path d="M4.85193 16.3762C5.27446 17.3314 6.23071 18 7.34066 18C8.45062 18 9.40683 17.3314 9.8294 16.3762H4.85193Z" fill="#989898"/>
<path d="M7.34038 1.71973C8.07284 1.71973 8.77614 1.84896 9.4288 2.08557V2.00517C9.4288 0.899514 8.52928 0 7.42366 0H7.25749C6.15183 0 5.25232 0.899514 5.25232 2.00517V2.08455C5.90463 1.84864 6.60772 1.71973 7.34038 1.71973Z" fill="#989898"/>
<path d="M13.9316 15.3198H0.749539C0.500152 15.3198 0.271717 15.1516 0.219846 14.9076C0.168504 14.6661 0.278583 14.4277 0.501913 14.3245C0.55491 14.2901 0.953818 14.0112 1.35318 13.1673C2.08666 11.6175 2.24062 9.43441 2.24062 7.87589C2.24062 5.06385 4.52839 2.77615 7.34039 2.77615C10.1457 2.77615 12.4293 5.05283 12.4401 7.85564C12.4404 7.86237 12.4405 7.86913 12.4405 7.87589C12.4405 9.43441 12.5945 11.6175 13.3279 13.1673C13.7273 14.0112 14.1262 14.2902 14.1792 14.3245C14.4025 14.4277 14.5127 14.6661 14.4613 14.9076C14.4094 15.1516 14.181 15.3198 13.9316 15.3198ZM14.1851 14.3282H14.1855H14.1851Z" fill="#989898"/>
</svg>
