<svg width="18" height="18" viewBox="0 0 18 18" fill="none" xmlns="http://www.w3.org/2000/svg">
<path d="M0.199966 11.367L2.09895 9.8775C2.06297 9.58949 2.03597 9.297 2.03597 9C2.03597 8.703 2.06297 8.41051 2.09895 8.1225L0.19545 6.63298C0.0244637 6.49798 -0.0250645 6.25498 0.08745 6.057L1.88747 2.93849C1.99998 2.74498 2.23395 2.66398 2.43645 2.74498L4.67746 3.64948C5.14097 3.29396 5.64946 2.99249 6.19845 2.76299L6.53595 0.378001C6.57649 0.166514 6.76097 0 6.98596 0H10.586C10.8109 0 10.9955 0.166514 11.0315 0.378001L11.369 2.76299C11.9179 2.99249 12.4265 3.28949 12.8899 3.64948L15.1309 2.74498C15.3334 2.66849 15.5675 2.74498 15.6799 2.93849L17.48 6.057C17.5925 6.25051 17.543 6.49351 17.372 6.63298L15.473 8.1225C15.509 8.41051 15.536 8.703 15.536 9C15.536 9.297 15.509 9.58949 15.473 9.8775L17.372 11.367C17.543 11.502 17.5925 11.745 17.48 11.943L15.68 15.0615C15.5675 15.255 15.3335 15.336 15.131 15.255L12.89 14.3505C12.4265 14.706 11.918 15.0075 11.369 15.237L11.0315 17.622C10.9955 17.8335 10.811 18 10.586 18H6.986C6.76102 18 6.57649 17.8335 6.5405 17.622L6.203 15.237C5.65402 15.0075 5.14549 14.7105 4.68201 14.3505L2.44101 15.255C2.23851 15.3315 2.0045 15.255 1.89202 15.0615L0.0920067 11.943C-0.0205498 11.7495 0.0289803 11.5065 0.199966 11.367ZM8.78598 12.15C10.5275 12.15 11.936 10.7415 11.936 9C11.936 7.2585 10.5275 5.85002 8.78598 5.85002C7.04448 5.85002 5.63596 7.25854 5.63596 9.00004C5.63596 10.7415 7.04448 12.15 8.78598 12.15Z" fill="#989898"/>
</svg>
