<svg width="21" height="17" viewBox="0 0 21 17" fill="none" xmlns="http://www.w3.org/2000/svg">
<path d="M20.8793 2.07533C20.7397 1.92496 20.5149 1.88588 20.3315 1.98002C20.1429 2.06441 19.9479 2.13389 19.7481 2.18777C20.0596 1.79503 20.2949 1.34897 20.442 0.872011C20.5067 0.632013 20.3617 0.385733 20.118 0.32195C19.9879 0.287887 19.8492 0.312128 19.7389 0.388178C19.0448 0.758188 18.307 1.04245 17.5421 1.23447C15.9677 -0.229291 13.5693 -0.411746 11.7853 0.796508C10.411 1.71173 9.65447 3.29354 9.81308 4.91999C6.8341 4.66995 4.09326 3.21593 2.24201 0.903502C2.14691 0.790185 2.00301 0.727793 1.85394 0.735339C1.70277 0.744276 1.56599 0.826482 1.48873 0.954765C0.860436 1.9664 0.678409 3.18671 0.984726 4.33358C1.1418 4.92285 1.41105 5.47738 1.77819 5.96771C1.61281 5.88795 1.45719 5.78989 1.31437 5.67543C1.11856 5.51899 0.831075 5.5485 0.672203 5.74137C0.606292 5.82142 0.570255 5.92133 0.570212 6.02441C0.597347 7.68821 1.5249 9.21095 3.0026 10.0175C2.80324 9.99338 2.60644 9.95186 2.41457 9.89338C2.17314 9.82185 1.91853 9.95662 1.8459 10.1944C1.81422 10.2982 1.82163 10.4097 1.86674 10.5085C2.50809 11.9236 3.79028 12.9572 5.32542 13.2965C3.86283 14.1093 2.17866 14.4508 0.509051 14.2732C0.292571 14.2459 0.0874755 14.3756 0.0223774 14.5808C-0.0447324 14.7843 0.0430923 15.0062 0.232395 15.1114C2.27672 16.3078 4.60232 16.9587 6.97988 17C9.26084 16.9918 11.4886 16.3207 13.3841 15.0709C17.0025 12.7056 19.2578 8.45892 18.9437 4.6592C19.7174 4.09511 20.3885 3.4061 20.9287 2.62131C21.0397 2.44931 21.0195 2.22528 20.8793 2.07533Z" fill="#03A9F4"/>
</svg>
